# xmcd CD database file
#
# Track frame offsets:
#	150
#	37246
#	83363
#	123674
#	151594
#	187385
#	228163
#	265661
#	305350
#
# Disc length: 4555 seconds
#
# Revision: 0
# Processed by: cddbd v1.5.2PL0 Copyright (c) Steve Scherf et al.
# Submitted via: CDex 1.70beta2
#
DISCID=6b11c909
DTITLE=Keith Jarrett - Yesterdays
DYEAR=1900
DGENRE=Jazz
TTITLE0=Strollin'
TTITLE1=You Took Advantage of Me
TTITLE2=Yesterdays
TTITLE3=Shaw'nuff
TTITLE4=You've Changed
TTITLE5=Scrapple from the Apple
TTITLE6=A Sleeping Bee
TTITLE7=Smoke Gets in Your Eyes
TTITLE8=Stella by Starlight
EXTD=
EXTT0=
EXTT1=
EXTT2=
EXTT3=
EXTT4=
EXTT5=
EXTT6=
EXTT7=
EXTT8=
PLAYORDER=
